<svg xmlns="http://www.w3.org/2000/svg" width="980" height="320" viewBox="0 0 980 320">
  <rect width="100%" height="100%" fill="#fbfcfd"/>
  <line x1="46" y1="282" x2="962" y2="282" stroke="#8a97a8"/>
  <line x1="46" y1="26" x2="46" y2="282" stroke="#8a97a8"/>
  <text x="46" y="312" fill="#536273" font-size="13">frame index</text>
  <text x="8" y="38" fill="#536273" font-size="13">score</text>
  <line x1='322.75' y1='26' x2='322.75' y2='282' stroke='#c0392b' stroke-width='2'/><text x='326.75' y='40' fill='#8f2f24' font-size='12'>b=71</text><line x1='463.07' y1='26' x2='463.07' y2='282' stroke='#c0392b' stroke-width='2'/><text x='467.07' y='40' fill='#8f2f24' font-size='12'>b=107</text><line x1='669.66' y1='26' x2='669.66' y2='282' stroke='#c0392b' stroke-width='2'/><text x='673.66' y='40' fill='#8f2f24' font-size='12'>b=160</text><line x1='821.68' y1='26' x2='821.68' y2='282' stroke='#c0392b' stroke-width='2'/><text x='825.68' y='40' fill='#8f2f24' font-size='12'>b=199</text>
  <polyline points="49.90,178.90 53.80,175.85 57.69,190.12 61.59,192.39 65.49,161.25 69.39,184.80 73.29,175.67 77.18,165.48 81.08,160.78 84.98,172.89 88.88,106.88 92.77,166.54 96.67,169.67 100.57,133.74 104.47,147.62 108.37,96.41 112.26,156.62 116.16,143.01 120.06,134.03 123.96,140.00 127.86,109.94 131.75,144.60 135.65,89.14 139.55,114.41 143.45,142.30 147.34,93.63 151.24,107.68 155.14,158.62 159.04,171.44 162.94,148.43 166.83,146.25 170.73,129.52 174.63,140.73 178.53,147.41 182.43,144.74 186.32,119.70 190.22,131.09 194.12,137.93 198.02,150.19 201.91,93.06 205.81,151.17 209.71,137.61 213.61,131.17 217.51,144.67 221.40,136.43 225.30,127.54 229.20,145.86 233.10,113.09 237.00,123.24 240.89,115.47 244.79,111.14 248.69,130.03 252.59,133.09 256.49,155.71 260.38,116.93 264.28,121.95 268.18,118.64 272.08,112.67 275.97,128.86 279.87,124.09 283.77,129.55 287.67,134.37 291.57,160.45 295.46,102.51 299.36,154.07 303.26,114.54 307.16,134.11 311.06,73.86 314.95,123.60 318.85,69.75 322.75,64.28 326.65,87.55 330.54,98.79 334.44,150.79 338.34,101.66 342.24,124.80 346.14,86.89 350.03,116.55 353.93,135.91 357.83,148.17 361.73,119.66 365.63,118.67 369.52,112.30 373.42,130.94 377.32,122.04 381.22,132.18 385.11,144.50 389.01,132.96 392.91,109.81 396.81,143.23 400.71,144.40 404.60,88.75 408.50,139.03 412.40,67.40 416.30,110.83 420.20,181.31 424.09,188.98 427.99,109.74 431.89,98.83 435.79,119.45 439.69,96.72 443.58,67.53 447.48,74.33 451.38,71.30 455.28,69.12 459.17,75.85 463.07,39.75 466.97,45.57 470.87,157.50 474.77,166.49 478.66,131.21 482.56,115.78 486.46,142.67 490.36,175.94 494.26,188.30 498.15,117.08 502.05,143.80 505.95,147.72 509.85,113.96 513.74,112.13 517.64,121.93 521.54,148.63 525.44,72.39 529.34,145.48 533.23,102.02 537.13,153.58 541.03,190.04 544.93,233.16 548.83,230.07 552.72,235.46 556.62,203.37 560.52,123.15 564.42,159.36 568.31,149.99 572.21,158.36 576.11,165.45 580.01,192.39 583.91,97.76 587.80,49.94 591.70,98.78 595.60,43.66 599.50,121.75 603.40,141.64 607.29,132.09 611.19,126.72 615.09,136.53 618.99,142.55 622.89,149.24 626.78,122.55 630.68,88.26 634.58,150.73 638.48,110.57 642.37,163.88 646.27,142.91 650.17,156.91 654.07,155.16 657.97,131.03 661.86,166.97 665.76,45.17 669.66,26.00 673.56,160.54 677.46,164.48 681.35,140.40 685.25,162.66 689.15,165.89 693.05,149.72 696.94,162.30 700.84,85.24 704.74,152.39 708.64,156.66 712.54,167.55 716.43,176.05 720.33,202.65 724.23,225.80 728.13,226.56 732.03,230.47 735.92,213.67 739.82,151.33 743.72,159.87 747.62,125.90 751.51,133.08 755.41,128.62 759.31,113.09 763.21,108.08 767.11,87.73 771.00,132.56 774.90,91.24 778.80,91.58 782.70,124.75 786.60,162.10 790.49,34.97 794.39,116.91 798.29,134.95 802.19,112.47 806.09,107.07 809.98,47.73 813.88,43.80 817.78,57.22 821.68,32.43 825.57,123.40 829.47,123.38 833.37,94.71 837.27,91.20 841.17,113.70 845.06,127.44 848.96,132.31 852.86,111.60 856.76,123.07 860.66,99.17 864.55,160.36 868.45,59.11 872.35,65.32 876.25,71.26 880.14,69.14 884.04,99.18 887.94,83.08 891.84,157.34 895.74,152.69 899.63,145.90 903.53,153.50 907.43,133.02 911.33,139.16 915.23,151.19 919.12,104.73 923.02,146.73 926.92,134.36 930.82,159.44 934.71,143.75 938.61,163.53 942.51,162.96 946.41,153.68 950.31,150.77 954.20,162.11 958.10,144.37 962.00,142.21" fill="none" stroke="#2c7fb8" stroke-width="2"/>
  <circle cx='322.75' cy='64.28' r='4' fill='#c0392b'/><circle cx='463.07' cy='39.75' r='4' fill='#c0392b'/><circle cx='669.66' cy='26.00' r='4' fill='#c0392b'/><circle cx='821.68' cy='32.43' r='4' fill='#c0392b'/>
  <text x="46" y="18" fill="#536273" font-size="13">Visual change score curve; red lines are selected boundaries</text>
</svg>
